<?xml version="1.0" encoding="utf-8"?>
<!-- Generator: Adobe Illustrator 15.0.0, SVG Export Plug-In . SVG Version: 6.00 Build 0)  -->
<!DOCTYPE svg PUBLIC "-//W3C//DTD SVG 1.1//EN" "http://www.w3.org/Graphics/SVG/1.1/DTD/svg11.dtd">
<svg version="1.1" id="Lager_1" xmlns="http://www.w3.org/2000/svg" xmlns:xlink="http://www.w3.org/1999/xlink" x="0px" y="0px"
	 width="842px" height="595px" viewBox="0 0 842 595" enable-background="new 0 0 842 595" xml:space="preserve">
<g>
	<circle fill="#EE2A7B" cx="417.519" cy="287.99" r="129.868"/>
	<g>
		<path d="M268.648,295.942l-16.188-0.335l0.044-2.156l7.962,0.165l-7.826-6.767l0.048-2.32l7.594,6.565l8.616-7.323l-0.06,2.877
			l-8.342,6.968l8.193,0.169L268.648,295.942z"/>
		<path d="M253.528,274.828l0.342-2.281l10.087,1.511c1.757,0.264,3.012,0.115,3.766-0.445c0.754-0.561,1.219-1.431,1.396-2.61
			c0.111-0.745,0.079-1.394-0.102-1.946c-0.178-0.552-0.534-1.012-1.067-1.381c-0.533-0.368-1.478-0.653-2.831-0.856l-10.164-1.522
			l0.295-1.969l10.145,1.52c1.738,0.262,2.958,0.663,3.662,1.208c0.703,0.545,1.222,1.242,1.555,2.094
			c0.333,0.851,0.403,1.922,0.209,3.214c-0.206,1.379-0.607,2.459-1.204,3.24c-0.597,0.782-1.334,1.329-2.215,1.64
			c-0.879,0.311-2.145,0.343-3.796,0.095L253.528,274.828z"/>
		<path d="M272.997,257.645l-15.531-4.552l0.638-2.179l14.269-4.278l-11.985-3.512l0.56-1.907l15.531,4.553l-0.635,2.167
			l-14.288,4.284l12.001,3.518L272.997,257.645z"/>
		<path d="M283.886,226.848c-0.203,1.469-0.403,2.518-0.6,3.147c-0.197,0.631-0.44,1.267-0.729,1.909
			c-0.798,1.779-1.746,3.036-2.843,3.77c-1.097,0.734-2.368,1.097-3.812,1.087c-1.443-0.009-2.91-0.347-4.396-1.012
			c-2.272-1.019-3.864-2.457-4.776-4.313c-0.911-1.857-0.813-4.021,0.292-6.486c0.668-1.49,1.586-2.953,2.754-4.387l1.938,0.868
			c-1.167,1.28-1.919,2.184-2.259,2.708c-0.339,0.525-0.621,1.038-0.846,1.539c-0.799,1.782-0.773,3.34,0.076,4.675
			c0.849,1.334,2.128,2.385,3.841,3.151c1.062,0.478,2.129,0.752,3.198,0.827c1.071,0.075,2.086-0.15,3.046-0.675
			c0.96-0.525,1.742-1.458,2.345-2.801c0.151-0.342,0.277-0.669,0.376-0.987c0.098-0.317,0.189-0.801,0.275-1.453l-4.789-2.147
			l0.938-2.094L283.886,226.848z"/>
		<path d="M288.105,220.022l-13.875-8.359l1.187-1.968l12.407,7.474l3.727-6.187l1.469,0.885L288.105,220.022z"/>
		<path d="M297.001,206.285l-13.063-9.588l1.376-1.875l13.063,9.589L297.001,206.285z"/>
		<path d="M311.5,188.251c-0.654,1.327-1.173,2.259-1.558,2.795c-0.384,0.538-0.813,1.067-1.288,1.586
			c-1.312,1.442-2.602,2.342-3.87,2.699c-1.268,0.357-2.584,0.309-3.949-0.144c-1.365-0.454-2.646-1.228-3.846-2.317
			c-1.833-1.667-2.892-3.523-3.176-5.566c-0.282-2.042,0.484-4.063,2.301-6.061c1.098-1.207,2.425-2.311,3.979-3.308l1.562,1.421
			c-1.509,0.853-2.507,1.476-2.992,1.868c-0.486,0.394-0.914,0.794-1.283,1.199c-1.313,1.445-1.777,2.933-1.39,4.461
			c0.387,1.529,1.271,2.922,2.653,4.18c0.859,0.78,1.783,1.372,2.773,1.773c0.989,0.402,2.021,0.502,3.095,0.304
			c1.073-0.199,2.104-0.843,3.091-1.931c0.251-0.274,0.472-0.548,0.664-0.817c0.191-0.271,0.429-0.701,0.712-1.292l-3.889-3.538
			l1.562-1.72L311.5,188.251z"/>
		<path d="M313.263,169.491l6.57,3.534l-4.191,3.542L313.263,169.491z M317.775,182.906l-1.543-4.587l5.229-4.418l4.261,2.292
			l1.895-1.603l-15.266-8.256l-1.743,1.472l5.542,16.478L317.775,182.906z"/>
		<path d="M345.593,163.025l-6.957-12.687l-5.032,2.758l-0.839-1.53l12.092-6.631l0.84,1.53l-5.03,2.76l6.957,12.687
			L345.593,163.025z"/>
		<path d="M358.403,156.587l-6.104-15l8.468-3.447l0.65,1.594l-6.312,2.568l1.946,4.781l5.311-2.162l0.65,1.594l-5.313,2.162
			l2.213,5.438l6.75-2.749l0.647,1.594L358.403,156.587z"/>
		<path d="M373.467,150.911l-4.309-15.594l2.093-0.578l2.12,7.67l4.228-9.425l2.261-0.625l-4.11,9.163l9.482,6.137l-2.781,0.768
			l-9.071-5.987l2.18,7.892L373.467,150.911z"/>
		<path d="M391.436,146.411l-2.237-16.031l2.25-0.312l9.788,11.25l-1.727-12.376l1.969-0.274l2.237,16.031l-2.239,0.312
			l-9.802-11.267l1.729,12.393L391.436,146.411z"/>
		<path d="M411.934,144.245l-0.574-16.156l2.312-0.082l0.574,16.156L411.934,144.245z"/>
		<path d="M421.735,143.762l0.123-2.284c1.26,0.673,2.185,1.089,2.771,1.248c0.588,0.156,1.137,0.25,1.645,0.276
			c0.922,0.05,1.663-0.165,2.224-0.641c0.561-0.478,0.859-1.068,0.897-1.774c0.028-0.53-0.08-1.028-0.323-1.493
			c-0.251-0.458-0.923-1.037-2.017-1.738l-1.08-0.704c-1.438-0.924-2.396-1.749-2.869-2.476c-0.472-0.726-0.686-1.515-0.64-2.367
			c0.042-0.766,0.281-1.472,0.722-2.12c0.44-0.648,1.011-1.145,1.712-1.486s1.569-0.484,2.604-0.43
			c1.245,0.066,2.548,0.345,3.91,0.835l-0.114,2.127c-1.171-0.551-1.978-0.888-2.418-1.013c-0.441-0.125-0.883-0.199-1.325-0.224
			c-0.929-0.05-1.63,0.157-2.103,0.62c-0.474,0.463-0.723,0.949-0.749,1.458c-0.021,0.351,0.064,0.709,0.254,1.081
			c0.188,0.372,0.452,0.695,0.79,0.972c0.338,0.277,0.81,0.61,1.417,1l1.124,0.718c1.454,0.932,2.411,1.764,2.877,2.499
			c0.464,0.739,0.672,1.572,0.622,2.496c-0.067,1.261-0.605,2.327-1.611,3.2c-1.008,0.874-2.444,1.261-4.308,1.161
			c-0.575-0.031-1.131-0.099-1.666-0.206C423.669,144.393,422.846,144.147,421.735,143.762z"/>
		<path d="M438.961,145.396l2.749-15.938l2.125,0.367l-1.353,7.839l7.895-6.71l2.286,0.395l-7.66,6.512l5.974,9.609l-2.839-0.49
			l-5.66-9.284l-1.392,8.067L438.961,145.396z"/>
		<path d="M466.681,138.173l0.555,7.466l-5.265-1.634L466.681,138.173z M457.769,149.21l3.03-3.753l6.576,2.04l0.357,4.805
			l2.372,0.734l-1.258-17.347l-2.169-0.671l-10.949,13.561L457.769,149.21z"/>
		<path d="M486.756,160.396l7.969-14.094l2,1.131l-3.355,5.938l6.719,3.798l3.357-5.938l2,1.13l-7.969,14.095l-2-1.131l3.763-6.657
			l-6.718-3.798l-3.764,6.657L486.756,160.396z"/>
		<path d="M508.361,170.064c0.027-1.506,0.677-3.089,1.947-4.749c1.265-1.654,2.622-2.684,4.068-3.089
			c1.445-0.405,2.812-0.116,4.099,0.87c1.287,0.984,1.924,2.228,1.91,3.73c-0.016,1.502-0.655,3.08-1.921,4.735
			c-1.271,1.659-2.63,2.698-4.077,3.117c-1.447,0.418-2.82,0.13-4.118-0.864C508.97,172.821,508.334,171.57,508.361,170.064z
			 M513.123,176.815c1.353,0.124,2.659-0.155,3.92-0.834s2.375-1.653,3.344-2.918c0.973-1.271,1.624-2.609,1.95-4.014
			c0.326-1.405,0.246-2.743-0.243-4.016c-0.488-1.271-1.343-2.376-2.566-3.311c-1.223-0.938-2.512-1.475-3.866-1.614
			c-1.355-0.139-2.668,0.132-3.939,0.814c-1.271,0.682-2.393,1.657-3.366,2.929c-1.008,1.316-1.664,2.688-1.967,4.109
			c-0.303,1.423-0.212,2.75,0.273,3.983c0.484,1.233,1.336,2.316,2.554,3.248C510.468,176.149,511.77,176.69,513.123,176.815z
			 M519.119,160.218l1.147-1.5l-1.5-1.148l-1.147,1.5L519.119,160.218z M522.556,162.849l1.148-1.5l-1.5-1.148l-1.148,1.5
			L522.556,162.849z"/>
		<path d="M534.338,188.003l-1.64-1.656l-3.743,3.703c-0.576-0.313-0.994-0.573-1.253-0.778c-0.26-0.205-0.521-0.44-0.781-0.705
			c-1.032-1.043-1.618-2.104-1.759-3.186c-0.143-1.082,0.016-2.107,0.47-3.075c0.456-0.969,1.096-1.862,1.92-2.678
			c1.331-1.316,2.77-2.128,4.318-2.436c1.548-0.308,3.008,0.232,4.38,1.62c0.386,0.39,0.763,0.836,1.133,1.34
			c0.37,0.503,0.947,1.523,1.733,3.06l1.5-1.483c-0.923-1.6-1.958-2.979-3.105-4.141c-1.899-1.921-3.879-2.79-5.939-2.611
			c-2.06,0.179-3.975,1.144-5.743,2.894c-1.157,1.145-2,2.389-2.528,3.731c-0.53,1.343-0.65,2.658-0.362,3.946
			c0.288,1.286,1.118,2.624,2.489,4.011c0.496,0.5,1,0.957,1.516,1.37c0.516,0.414,1.417,0.982,2.706,1.709L534.338,188.003z"/>
		<path d="M534.144,198.067l1.814-1.409c0.32,1.389,0.613,2.355,0.881,2.902c0.267,0.546,0.556,1.021,0.868,1.423
			c0.564,0.729,1.21,1.15,1.934,1.264c0.725,0.114,1.364-0.044,1.918-0.474c0.417-0.323,0.719-0.729,0.908-1.217
			c0.178-0.49,0.173-1.376-0.018-2.659l-0.175-1.277c-0.246-1.692-0.247-2.956-0.007-3.789c0.24-0.832,0.697-1.509,1.371-2.032
			c0.604-0.47,1.296-0.749,2.074-0.84s1.525,0.018,2.245,0.325c0.718,0.309,1.396,0.872,2.03,1.691
			c0.767,0.987,1.408,2.159,1.928,3.513l-1.659,1.287c-0.374-1.243-0.661-2.072-0.861-2.488s-0.437-0.801-0.711-1.154
			c-0.577-0.742-1.193-1.144-1.853-1.203c-0.659-0.061-1.189,0.064-1.588,0.375c-0.274,0.213-0.487,0.513-0.639,0.901
			c-0.15,0.39-0.217,0.806-0.196,1.249c0.019,0.443,0.081,1.021,0.187,1.733l0.192,1.319c0.247,1.709,0.245,2.979-0.005,3.811
			c-0.256,0.835-0.75,1.536-1.479,2.104c-0.996,0.772-2.154,1.064-3.473,0.875c-1.318-0.191-2.55-1.022-3.693-2.496
			c-0.353-0.455-0.664-0.919-0.935-1.393C534.936,199.937,534.582,199.156,534.144,198.067z"/>
		<path d="M544,211.938l13.843-8.377l1.116,1.843l-6.811,4.122l10.213,1.501l1.222,2.019l-9.941-1.462l-3.335,10.777l-1.501-2.48
			l3.312-10.334l-7.002,4.237L544,211.938z"/>
		<path d="M557.268,229.404c0.76-1.299,2.1-2.367,4.021-3.204c1.912-0.833,3.602-1.08,5.062-0.741
			c1.46,0.34,2.512,1.246,3.154,2.721c0.642,1.474,0.589,2.862-0.157,4.163c-0.747,1.301-2.078,2.368-3.992,3.202
			c-1.921,0.836-3.616,1.09-5.083,0.762c-1.469-0.328-2.525-1.237-3.174-2.724C556.451,232.095,556.509,230.702,557.268,229.404z
			 M558.131,237.577c1.124,0.761,2.401,1.147,3.836,1.162s2.885-0.298,4.35-0.936c1.473-0.642,2.693-1.496,3.664-2.565
			c0.971-1.068,1.553-2.276,1.748-3.622c0.194-1.346-0.016-2.723-0.628-4.129c-0.612-1.407-1.479-2.498-2.596-3.272
			s-2.398-1.171-3.842-1.188c-1.444-0.018-2.901,0.294-4.373,0.935c-1.526,0.665-2.769,1.545-3.727,2.641
			c-0.959,1.095-1.526,2.299-1.705,3.609c-0.177,1.311,0.039,2.666,0.649,4.065C556.133,235.718,557.009,236.817,558.131,237.577z"
			/>
		<path d="M561.104,247.851l15.531-4.559l0.65,2.219l-13.875,4.073l2.037,6.937l-1.655,0.487L561.104,247.851z"/>
		<path d="M564.936,261.409l17.035,3.65l0.377,2.242l-14.914,8.951l-0.413-2.449l4.144-2.496l-1.141-6.779l-4.734-1.015
			L564.936,261.409z M571.856,264.922l0.912,5.421l6.395-3.855L571.856,264.922z"/>
		<path d="M567.958,282.428l16.155-0.555l0.079,2.282l-12.182,8.521l12.46-0.427l0.068,2l-16.156,0.554l-0.078-2.271l12.2-8.531
			l-12.479,0.428L567.958,282.428z"/>
		<path d="M316.74,404.353l1.429,1.237c1.668,1.445,2.632,2.651,2.89,3.621c0.258,0.971,0.221,1.932-0.11,2.881
			c-0.332,0.951-0.87,1.855-1.613,2.715c-0.843,0.974-1.771,1.717-2.782,2.228c-1.011,0.511-1.963,0.7-2.854,0.568
			c-0.893-0.134-1.917-0.7-3.074-1.701l-2.222-1.924L316.74,404.353z M309.615,417.324c1.535,1.329,2.986,2.074,4.354,2.234
			c1.367,0.161,2.684-0.062,3.946-0.667c1.264-0.604,2.398-1.489,3.407-2.654c1.065-1.23,1.747-2.483,2.043-3.756
			c0.296-1.274,0.237-2.49-0.181-3.648c-0.417-1.158-1.412-2.418-2.985-3.78l-4.074-3.527l-10.608,12.251L309.615,417.324z"/>
		<path d="M334.856,420.034l-1.53,7.335l-4.604-3.025L334.856,420.034z M323.261,428.182l3.947-2.775l5.741,3.773l-0.984,4.723
			l2.076,1.364l3.585-17.021l-1.9-1.248l-14.248,10.012L323.261,428.182z"/>
		<path d="M344.578,440.817l6.373-12.97l-5.156-2.533l0.768-1.562l12.375,6.081l-0.769,1.562l-5.155-2.534l-6.373,12.97
			L344.578,440.817z"/>
		<path d="M368.695,436.691l0.333,7.482l-5.208-1.791L368.695,436.691z M359.471,447.455l3.145-3.67l6.493,2.233l0.215,4.827
			l2.349,0.809l-0.738-17.38l-2.146-0.739l-11.333,13.228L359.471,447.455z"/>
		<path d="M378.592,453.103l0.487-2.252c1.144,0.865,1.994,1.421,2.553,1.67s1.088,0.427,1.588,0.535
			c0.906,0.195,1.675,0.104,2.307-0.276c0.631-0.379,1.021-0.915,1.17-1.603c0.111-0.519,0.081-1.026-0.092-1.524
			c-0.182-0.492-0.758-1.17-1.729-2.034l-0.958-0.865c-1.277-1.142-2.093-2.106-2.444-2.898c-0.353-0.792-0.438-1.604-0.258-2.438
			c0.162-0.747,0.512-1.405,1.05-1.976c0.538-0.57,1.182-0.968,1.931-1.194c0.749-0.226,1.631-0.229,2.647-0.009
			c1.222,0.264,2.469,0.752,3.737,1.462l-0.445,2.064c-1.079-0.728-1.827-1.188-2.246-1.38c-0.419-0.193-0.847-0.336-1.282-0.432
			c-0.917-0.196-1.646-0.105-2.188,0.274c-0.542,0.38-0.868,0.819-0.974,1.315c-0.074,0.342-0.046,0.708,0.085,1.104
			c0.13,0.396,0.343,0.757,0.638,1.084c0.294,0.328,0.71,0.732,1.25,1.211l0.997,0.886c1.29,1.152,2.108,2.125,2.452,2.922
			c0.341,0.806,0.414,1.659,0.219,2.563c-0.266,1.231-0.967,2.199-2.102,2.901c-1.135,0.7-2.617,0.854-4.445,0.459
			c-0.563-0.122-1.104-0.276-1.616-0.465C380.41,454.021,379.633,453.653,378.592,453.103z"/>
		<path d="M396.82,456.842l1.702-16.094l9.031,0.956l-0.184,1.72l-6.719-0.711l-0.542,5.125l5.625,0.595l-0.183,1.719l-5.625-0.595
			l-0.614,5.812l7.188,0.762l-0.182,1.719L396.82,456.842z"/>
		<path d="M414.532,458.239l-0.134-16.188l2.156-0.019l0.065,7.962l6.536-8.016l2.321-0.02l-6.341,7.778l7.569,8.398l-2.878,0.023
			l-7.206-8.135l0.068,8.194L414.532,458.239z"/>
		<path d="M438.641,456.969l-1.858-14.344l-5.688,0.736l-0.224-1.718l13.657-1.77l0.223,1.719l-5.688,0.737l1.857,14.344
			L438.641,456.969z"/>
		<path d="M454.205,454.303l-3.604-15.781l2.25-0.514l3.604,15.779L454.205,454.303z"/>
		<path d="M467.534,447.481c-1.239-0.859-2.201-2.282-2.883-4.266c-0.681-1.978-0.791-3.683-0.333-5.115s1.451-2.412,2.979-2.938
			c1.528-0.526,2.914-0.366,4.156,0.48c1.243,0.848,2.205,2.26,2.885,4.237c0.683,1.983,0.8,3.695,0.353,5.136
			c-0.448,1.44-1.442,2.427-2.984,2.957C470.163,448.507,468.774,448.343,467.534,447.481z M475.774,447.243
			c0.85-1.059,1.34-2.303,1.469-3.729c0.129-1.428-0.064-2.896-0.584-4.405c-0.521-1.516-1.278-2.799-2.269-3.85
			c-0.99-1.05-2.149-1.726-3.478-2.022c-1.329-0.298-2.721-0.196-4.175,0.304c-1.455,0.5-2.614,1.276-3.478,2.329
			c-0.863,1.054-1.362,2.298-1.497,3.734c-0.134,1.438,0.061,2.914,0.582,4.43c0.541,1.571,1.318,2.877,2.336,3.918
			s2.173,1.701,3.468,1.98c1.294,0.279,2.666,0.169,4.114-0.33C473.754,449.088,474.923,448.302,475.774,447.243z"/>
		<path d="M487.625,443.124l-7.345-14.438l2.033-1.034l12.88,7.462l-5.663-11.134l1.782-0.906l7.344,14.438l-2.023,1.029
			l-12.897-7.474l5.671,11.148L487.625,443.124z"/>
		<path d="M507.121,432.39l-9.037-13.438l7.562-5.087l0.967,1.438l-5.656,3.805l2.88,4.28l4.749-3.194l0.969,1.438l-4.75,3.195
			l3.258,4.844l6.031-4.057l0.967,1.438L507.121,432.39z"/>
		<path d="M521.669,422.042l-10.595-12.25l1.715-1.481l14.342,4.132l-8.183-9.46l1.5-1.297l10.594,12.25l-1.706,1.476l-14.36-4.138
			l8.191,9.473L521.669,422.042z"/>
	</g>
	<g>
		
			<linearGradient id="SVGID_1_" gradientUnits="userSpaceOnUse" x1="877.677" y1="-221.0686" x2="900.9426" y2="-221.0686" gradientTransform="matrix(4 -2.593994e-04 -2.593994e-04 -4 -3186.3069 -574.4521)">
			<stop  offset="0" style="stop-color:#FCED00"/>
			<stop  offset="1" style="stop-color:#FCB216"/>
		</linearGradient>
		<polygon fill="url(#SVGID_1_)" points="417.513,206.791 361.528,412.392 337.527,408.926 324.46,387.327 		"/>
		
			<linearGradient id="SVGID_2_" gradientUnits="userSpaceOnUse" x1="868.1438" y1="-215.2683" x2="900.9426" y2="-215.2683" gradientTransform="matrix(4 -2.593994e-04 -2.593994e-04 -4 -3186.3069 -574.4521)">
			<stop  offset="0" style="stop-color:#FCED00"/>
			<stop  offset="1" style="stop-color:#FCB216"/>
		</linearGradient>
		<polygon fill="url(#SVGID_2_)" points="417.513,205.191 307.925,367.594 286.324,352.398 288.723,325.465 		"/>
		
			<linearGradient id="SVGID_3_" gradientUnits="userSpaceOnUse" x1="894.4768" y1="-223.5017" x2="908.2092" y2="-223.5017" gradientTransform="matrix(4 -2.593994e-04 -2.593994e-04 -4 -3186.3069 -574.4521)">
			<stop  offset="0" style="stop-color:#FCED00"/>
			<stop  offset="1" style="stop-color:#FCB216"/>
		</linearGradient>
		<polygon fill="url(#SVGID_3_)" points="418.046,206.391 391.661,421.59 419.928,432.255 446.594,421.053 		"/>
		
			<linearGradient id="SVGID_4_" gradientUnits="userSpaceOnUse" x1="901.343" y1="-220.9685" x2="924.6096" y2="-220.9685" gradientTransform="matrix(4 -2.593994e-04 -2.593994e-04 -4 -3186.3069 -574.4521)">
			<stop  offset="0" style="stop-color:#FCED00"/>
			<stop  offset="1" style="stop-color:#FCB216"/>
		</linearGradient>
		<polygon fill="url(#SVGID_4_)" points="419.113,206.391 475.125,411.984 499.125,408.516 512.191,386.915 		"/>
		
			<linearGradient id="SVGID_5_" gradientUnits="userSpaceOnUse" x1="901.343" y1="-215.1682" x2="934.1428" y2="-215.1682" gradientTransform="matrix(4 -2.593994e-04 -2.593994e-04 -4 -3186.3069 -574.4521)">
			<stop  offset="0" style="stop-color:#FCED00"/>
			<stop  offset="1" style="stop-color:#FCB216"/>
		</linearGradient>
		<polygon fill="url(#SVGID_5_)" points="419.113,204.791 528.722,367.181 550.321,351.979 547.918,325.048 		"/>
		
			<linearGradient id="SVGID_6_" gradientUnits="userSpaceOnUse" x1="901.343" y1="-206.9021" x2="936.7424" y2="-206.9021" gradientTransform="matrix(4 -2.593994e-04 -2.593994e-04 -4 -3186.3069 -574.4521)">
			<stop  offset="0" style="stop-color:#FCED00"/>
			<stop  offset="1" style="stop-color:#FCB216"/>
		</linearGradient>
		<polygon fill="url(#SVGID_6_)" points="419.113,204.791 552.718,301.048 560.716,279.714 549.515,256.248 		"/>
		
			<linearGradient id="SVGID_7_" gradientUnits="userSpaceOnUse" x1="901.343" y1="-198.5354" x2="932.0764" y2="-198.5354" gradientTransform="matrix(4 -2.593994e-04 -2.593994e-04 -4 -3186.3069 -574.4521)">
			<stop  offset="0" style="stop-color:#FCED00"/>
			<stop  offset="1" style="stop-color:#FCB216"/>
		</linearGradient>
		<polygon fill="url(#SVGID_7_)" points="419.113,204.791 542.047,235.983 538.312,214.384 520.711,202.917 		"/>
		
			<linearGradient id="SVGID_8_" gradientUnits="userSpaceOnUse" x1="901.343" y1="-190.4358" x2="923.4094" y2="-190.4358" gradientTransform="matrix(4 -2.593994e-04 -2.593994e-04 -4 -3186.3069 -574.4521)">
			<stop  offset="0" style="stop-color:#FCED00"/>
			<stop  offset="1" style="stop-color:#FCB216"/>
		</linearGradient>
		<polygon fill="url(#SVGID_8_)" points="419.113,204.791 507.378,188.518 496.177,174.12 476.977,169.321 		"/>
		
			<linearGradient id="SVGID_9_" gradientUnits="userSpaceOnUse" x1="901.343" y1="-188.5686" x2="911.8088" y2="-188.5686" gradientTransform="matrix(4 -2.593994e-04 -2.593994e-04 -4 -3186.3069 -574.4521)">
			<stop  offset="0" style="stop-color:#FCED00"/>
			<stop  offset="1" style="stop-color:#FCB216"/>
		</linearGradient>
		<polygon fill="url(#SVGID_9_)" points="419.113,206.391 460.976,161.855 444.976,152.79 426.843,154.924 		"/>
		
			<linearGradient id="SVGID_10_" gradientUnits="userSpaceOnUse" x1="865.677" y1="-206.9021" x2="901.0764" y2="-206.9021" gradientTransform="matrix(4 -2.593994e-04 -2.593994e-04 -4 -3186.3069 -574.4521)">
			<stop  offset="0" style="stop-color:#FCED00"/>
			<stop  offset="1" style="stop-color:#FCB216"/>
		</linearGradient>
		<polygon fill="url(#SVGID_10_)" points="418.046,204.791 284.455,301.065 276.453,279.733 287.651,256.265 		"/>
		
			<linearGradient id="SVGID_11_" gradientUnits="userSpaceOnUse" x1="870.344" y1="-198.5354" x2="901.0764" y2="-198.5354" gradientTransform="matrix(4 -2.593994e-04 -2.593994e-04 -4 -3186.3069 -574.4521)">
			<stop  offset="0" style="stop-color:#FCED00"/>
			<stop  offset="1" style="stop-color:#FCB216"/>
		</linearGradient>
		<polygon fill="url(#SVGID_11_)" points="418.046,204.791 295.117,235.999 298.849,214.399 316.448,202.93 		"/>
		
			<linearGradient id="SVGID_12_" gradientUnits="userSpaceOnUse" x1="879.01" y1="-190.4358" x2="901.0764" y2="-190.4358" gradientTransform="matrix(4 -2.593994e-04 -2.593994e-04 -4 -3186.3069 -574.4521)">
			<stop  offset="0" style="stop-color:#FCED00"/>
			<stop  offset="1" style="stop-color:#FCB216"/>
		</linearGradient>
		<polygon fill="url(#SVGID_12_)" points="418.046,204.791 329.78,188.53 340.979,174.13 360.178,169.329 		"/>
		
			<linearGradient id="SVGID_13_" gradientUnits="userSpaceOnUse" x1="890.6096" y1="-188.5691" x2="901.0764" y2="-188.5691" gradientTransform="matrix(4 -2.593994e-04 -2.593994e-04 -4 -3186.3069 -574.4521)">
			<stop  offset="0" style="stop-color:#FCED00"/>
			<stop  offset="1" style="stop-color:#FCB216"/>
		</linearGradient>
		<polygon fill="url(#SVGID_13_)" points="418.046,206.391 376.177,161.861 392.177,152.794 410.31,154.925 		"/>
		
			<linearGradient id="SVGID_14_" gradientUnits="userSpaceOnUse" x1="897.7375" y1="-195.2693" x2="904.9475" y2="-195.2693" gradientTransform="matrix(4 -2.593994e-04 -2.593994e-04 -4 -3186.3069 -574.4521)">
			<stop  offset="0" style="stop-color:#FCED00"/>
			<stop  offset="1" style="stop-color:#FCB216"/>
		</linearGradient>
		<circle fill="url(#SVGID_14_)" cx="419.113" cy="206.391" r="14.42"/>
	</g>
	<path d="M496.839,298.484c-7.344-50.314-48.022-56.131-57.225-58.984c-17.237-5.345-46.26-3.577-49.133-28.672
		c-3.788-33.059,21.358-16.804,38.109-15.509c16.746,1.295,18.228-17.846,18.228-17.846s-3.994,10.121-37.858,1.885
		c-33.865-8.235-37.895,19.542-38.174,26.737c-0.806,20.799,12.627,30.739,14.036,36.391c0.614,2.454-46.634,11.641-42.607,73.731
		c4.026,62.096,42.178,87.513,71.751,88.995C443.542,406.696,508.771,382.855,496.839,298.484z M474.428,339.277
		c-23.938,90.427-95.127,68.07-112.467,1.736c-16.87-64.537,29.059-95.643,29.059-95.643s10.122,3.99,21.9,7.31
		C419.807,254.621,494.826,262.223,474.428,339.277z"/>
	<path stroke="#000000" stroke-width="4" d="M497.652,298.07c-6.765-46.352-41.547-55.381-54.645-58.78
		c-1.251-0.326-2.329-0.605-3.131-0.854c-3.955-1.225-8.446-2.068-13.2-2.958c-15.572-2.918-33.222-6.227-35.378-25.042
		c-1.034-9.028,0.028-14.78,3.248-17.587c4.463-3.89,12.973-1.71,21.201,0.399c4.331,1.111,8.812,2.259,12.804,2.567
		c17.346,1.341,19.07-18.385,19.089-18.584l-1.544-0.354c-0.035,0.083-4.439,9.303-36.923,1.405
		c-11.79-2.867-21.223-1.711-28.036,3.434c-9.995,7.546-11.021,21.357-11.126,24.047c-0.582,15.038,6.123,24.476,10.561,30.721
		c1.748,2.458,3.126,4.4,3.5,5.894c-0.054-0.208,0.021-0.384,0.066-0.438c-0.237,0.277-1.665,0.956-3.045,1.611
		c-10.642,5.055-43.024,20.437-39.653,72.417c1.825,28.15,10.995,51.568,26.517,67.729c12.638,13.155,29.402,21.182,45.993,22.013
		c18.412,0.925,45.232-7.177,63.664-27.353C495.655,358.612,502.397,331.599,497.652,298.07z M414.031,404.114
		c-24.324-1.219-66.646-21.179-70.995-88.245c-3.301-50.899,28.344-65.931,38.743-70.868c3.072-1.459,4.107-1.952,3.843-3.007
		c-0.445-1.786-1.901-3.838-3.746-6.434c-4.312-6.068-10.828-15.241-10.267-29.732c0.099-2.565,1.071-15.722,10.491-22.834
		c6.412-4.842,15.394-5.904,26.694-3.156c34.15,8.304,38.619-1.932,38.792-2.372l-1.541-0.356
		c-0.062,0.75-1.625,18.331-17.372,17.115c-3.852-0.299-8.263-1.43-12.529-2.523c-8.629-2.213-17.552-4.499-22.65-0.056
		c-3.646,3.178-4.883,9.385-3.785,18.974c2.289,19.99,20.556,23.413,36.674,26.432c4.706,0.881,9.15,1.713,13.019,2.914
		c0.84,0.259,1.935,0.544,3.204,0.875c12.814,3.326,46.853,12.16,53.465,57.462c4.671,33.025-1.937,59.604-19.638,78.979
		C458.449,396.967,431.479,404.991,414.031,404.114z"/>
	<path stroke="#000000" stroke-width="4" d="M474.176,338.813c-9.988,37.728-29.497,59.346-53.523,59.307
		c-24.944-0.035-48.545-23.711-57.396-57.569c-16.522-63.215,28.279-94.469,28.732-94.778l-0.742,0.083
		c0.101,0.042,10.295,4.043,21.979,7.334c0.577,0.164,1.554,0.354,2.907,0.615c9.688,1.884,39.167,7.614,53.463,30.42
		C478.475,298.385,480.018,316.753,474.176,338.813z M413.659,251.65c-11.602-3.268-21.725-7.244-21.825-7.284l-0.394-0.156
		l-0.349,0.238c-0.115,0.078-11.739,8.059-21.095,23.875c-8.628,14.587-17.072,39.028-8.289,72.635
		c9.033,34.56,33.271,58.727,58.941,58.764c24.811,0.038,44.883-22.013,55.071-60.499c5.961-22.506,4.356-41.297-4.769-55.847
		c-14.666-23.392-44.659-29.224-54.515-31.139C415.173,251.989,414.173,251.795,413.659,251.65z"/>
</g>
</svg>
